# xmcd
#
# Track frame offsets:
#	150
#	5826
#	17175
#	23083
#	35169
#	47944
#	57324
#	77315
#	86147
#	98587
#	118969
#	126912
#	139641
#	155275
#	163900
#	172351
#	182405
#	194002
#	206583
#	224279
#	239895
#	251029
#	271349
#	285122
#
# Disc length: 3919 seconds
#
# Revision: 1
# Processed by: cddbd v1.5.2PL0 Copyright (c) Steve Scherf et al.
# Submitted via: audiograbber 1.83.01
#
DISCID=650f4d18
DTITLE=The Greatest Country Music Recordings Of All Time - Record 77 and 78
DYEAR=1900
DGENRE=
TTITLE0=Hamper McBee - Jack O'Diamonds
TTITLE1=Old Harp Singers Of Eastern Tennessee - Amazing Grace
TTITLE2=Virgil Craven - Mississippi Sawyer
TTITLE3=Frank Profit - Tom Dooley
TTITLE4=Tommy Jarrell - John Henry
TTITLE5=Tuskogee Institute Singers - I Want To Be Ready
TTITLE6=Mike Seeger - Lady Of Carlisle
TTITLE7=Kilby Snow - Flopeared Mule
TTITLE8=Allison's Sacred Harp Singers - Antioch
TTITLE9=Mrs. Annie Watson - The House Carpenter
TTITLE10=John Cohen - Walking Boss
TTITLE11=Fiddlin' John Carson - The Little Log Cabin In The Lane
TTITLE12=Bob Baker and Pike County Boys - Little Willie
TTITLE13=Sarah Gunning - Came All You Coal Miners
TTITLE14=Doc Watson - I'm Going Back To Jericho
TTITLE15=Earl Collins - Great Big Taters In Sandy Land
TTITLE16=George P. Watson - Sleep, Baby, Sleep
TTITLE17=Tracy Schwarz - The Time's Been Swiftly Rolling By
TTITLE18=Jimmie Tarlton - Fort Benning Blues
TTITLE19=Mike Seeger and Tracy Schwarz - Come All You Tender Hearted
TTITLE20=Bentley Ball - The Dying Cowboy
TTITLE21=Roscoe Holcomb - Wandering Boy
TTITLE22=Clarence Tom Ashley and Doc Watson - God's Gonna Easy My Troublin' Min
TTITLE22=d
TTITLE23=Mike Seeger - The Sailor And The Soldier
EXTD=
EXTT0=
EXTT1=
EXTT2=
EXTT3=
EXTT4=
EXTT5=
EXTT6=
EXTT7=
EXTT8=
EXTT9=
EXTT10=
EXTT11=
EXTT12=
EXTT13=
EXTT14=
EXTT15=
EXTT16=
EXTT17=
EXTT18=
EXTT19=
EXTT20=
EXTT21=
EXTT22=
EXTT23=
PLAYORDER=
